<svg width="505" height="434" viewBox="0 0 505 434" fill="none" xmlns="http://www.w3.org/2000/svg">
<path d="M252.337 360.93C238.466 360.93 224.755 360.141 211.517 358.723C174.634 391.348 130.818 414.36 82.1166 426.813C72.0306 429.649 60.9956 431.54 49.9646 432.961C43.8162 433.59 37.8276 429.02 36.4096 422.242V421.926C34.9916 414.832 39.7182 410.735 43.976 405.535C61.785 385.519 81.96 368.652 95.199 321.683C37.199 288.742 0 237.831 0 180.623C0 81.326 112.85 0.472992 252.18 0.472992C391.51 0.472992 504.36 81.012 504.36 180.623C504.364 280.232 391.67 360.933 252.34 360.933L252.337 360.93Z" fill="black"/>
</svg>
